<svg id="visual" viewBox="0 0 900 600" width="900" height="600" xmlns="http://www.w3.org/2000/svg" xmlns:xlink="http://www.w3.org/1999/xlink" version="1.1"><path d="M0 397L7.8 393C15.7 389 31.3 381 47.2 382.2C63 383.3 79 393.7 94.8 391C110.7 388.3 126.3 372.7 142 363.8C157.7 355 173.3 353 189.2 358.2C205 363.3 221 375.7 236.8 380.5C252.7 385.3 268.3 382.7 284.2 375.5C300 368.3 316 356.7 331.8 353.8C347.7 351 363.3 357 379 358.3C394.7 359.7 410.3 356.3 426.2 354.3C442 352.3 458 351.7 473.8 348C489.7 344.3 505.3 337.7 521 341.7C536.7 345.7 552.3 360.3 568.2 370.7C584 381 600 387 615.8 392C631.7 397 647.3 401 663.2 394.8C679 388.7 695 372.3 710.8 362.2C726.7 352 742.3 348 758 346.7C773.7 345.3 789.3 346.7 805.2 355.7C821 364.7 837 381.3 852.8 386.3C868.7 391.3 884.3 384.7 892.2 381.3L900 378L900 601L892.2 601C884.3 601 868.7 601 852.8 601C837 601 821 601 805.2 601C789.3 601 773.7 601 758 601C742.3 601 726.7 601 710.8 601C695 601 679 601 663.2 601C647.3 601 631.7 601 615.8 601C600 601 584 601 568.2 601C552.3 601 536.7 601 521 601C505.3 601 489.7 601 473.8 601C458 601 442 601 426.2 601C410.3 601 394.7 601 379 601C363.3 601 347.7 601 331.8 601C316 601 300 601 284.2 601C268.3 601 252.7 601 236.8 601C221 601 205 601 189.2 601C173.3 601 157.7 601 142 601C126.3 601 110.7 601 94.8 601C79 601 63 601 47.2 601C31.3 601 15.7 601 7.8 601L0 601Z" fill="#ef7900"></path><path d="M0 405L7.8 408.3C15.7 411.7 31.3 418.3 47.2 417.7C63 417 79 409 94.8 401.2C110.7 393.3 126.3 385.7 142 389C157.7 392.3 173.3 406.7 189.2 410C205 413.3 221 405.7 236.8 398.7C252.7 391.7 268.3 385.3 284.2 393.7C300 402 316 425 331.8 423.8C347.7 422.7 363.3 397.3 379 390.5C394.7 383.7 410.3 395.3 426.2 401.5C442 407.7 458 408.3 473.8 407.5C489.7 406.7 505.3 404.3 521 411.2C536.7 418 552.3 434 568.2 432.2C584 430.3 600 410.7 615.8 401C631.7 391.3 647.3 391.7 663.2 389.8C679 388 695 384 710.8 392C726.7 400 742.3 420 758 419.2C773.7 418.3 789.3 396.7 805.2 385C821 373.3 837 371.7 852.8 380.7C868.7 389.7 884.3 409.3 892.2 419.2L900 429L900 601L892.2 601C884.3 601 868.7 601 852.8 601C837 601 821 601 805.2 601C789.3 601 773.7 601 758 601C742.3 601 726.7 601 710.8 601C695 601 679 601 663.2 601C647.3 601 631.7 601 615.8 601C600 601 584 601 568.2 601C552.3 601 536.7 601 521 601C505.3 601 489.7 601 473.8 601C458 601 442 601 426.2 601C410.3 601 394.7 601 379 601C363.3 601 347.7 601 331.8 601C316 601 300 601 284.2 601C268.3 601 252.7 601 236.8 601C221 601 205 601 189.2 601C173.3 601 157.7 601 142 601C126.3 601 110.7 601 94.8 601C79 601 63 601 47.2 601C31.3 601 15.7 601 7.8 601L0 601Z" fill="#e46f00"></path><path d="M0 473L7.8 472.2C15.7 471.3 31.3 469.7 47.2 462.8C63 456 79 444 94.8 445.3C110.7 446.7 126.3 461.3 142 467.5C157.7 473.7 173.3 471.3 189.2 465.2C205 459 221 449 236.8 448.5C252.7 448 268.3 457 284.2 453.2C300 449.3 316 432.7 331.8 426C347.7 419.3 363.3 422.7 379 425.2C394.7 427.7 410.3 429.3 426.2 438.3C442 447.3 458 463.7 473.8 469.2C489.7 474.7 505.3 469.3 521 463.2C536.7 457 552.3 450 568.2 451.8C584 453.7 600 464.3 615.8 466.7C631.7 469 647.3 463 663.2 454.3C679 445.7 695 434.3 710.8 435.8C726.7 437.3 742.3 451.7 758 450C773.7 448.3 789.3 430.7 805.2 423.8C821 417 837 421 852.8 425.5C868.7 430 884.3 435 892.2 437.5L900 440L900 601L892.2 601C884.3 601 868.7 601 852.8 601C837 601 821 601 805.2 601C789.3 601 773.7 601 758 601C742.3 601 726.7 601 710.8 601C695 601 679 601 663.2 601C647.3 601 631.7 601 615.8 601C600 601 584 601 568.2 601C552.3 601 536.7 601 521 601C505.3 601 489.7 601 473.8 601C458 601 442 601 426.2 601C410.3 601 394.7 601 379 601C363.3 601 347.7 601 331.8 601C316 601 300 601 284.2 601C268.3 601 252.7 601 236.8 601C221 601 205 601 189.2 601C173.3 601 157.7 601 142 601C126.3 601 110.7 601 94.8 601C79 601 63 601 47.2 601C31.3 601 15.7 601 7.8 601L0 601Z" fill="#d96500"></path><path d="M0 454L7.8 459.7C15.7 465.3 31.3 476.7 47.2 479.7C63 482.7 79 477.3 94.8 474.3C110.7 471.3 126.3 470.7 142 474.2C157.7 477.7 173.3 485.3 189.2 491.3C205 497.3 221 501.7 236.8 504C252.7 506.3 268.3 506.7 284.2 505.3C300 504 316 501 331.8 493.3C347.7 485.7 363.3 473.3 379 475.3C394.7 477.3 410.3 493.7 426.2 500.7C442 507.7 458 505.3 473.8 496.3C489.7 487.3 505.3 471.7 521 473.3C536.7 475 552.3 494 568.2 497.8C584 501.7 600 490.3 615.8 480C631.7 469.7 647.3 460.3 663.2 456.2C679 452 695 453 710.8 456.3C726.7 459.7 742.3 465.3 758 472.3C773.7 479.3 789.3 487.7 805.2 493.7C821 499.7 837 503.3 852.8 502.5C868.7 501.7 884.3 496.3 892.2 493.7L900 491L900 601L892.2 601C884.3 601 868.7 601 852.8 601C837 601 821 601 805.2 601C789.3 601 773.7 601 758 601C742.3 601 726.7 601 710.8 601C695 601 679 601 663.2 601C647.3 601 631.7 601 615.8 601C600 601 584 601 568.2 601C552.3 601 536.7 601 521 601C505.3 601 489.7 601 473.8 601C458 601 442 601 426.2 601C410.3 601 394.7 601 379 601C363.3 601 347.7 601 331.8 601C316 601 300 601 284.2 601C268.3 601 252.7 601 236.8 601C221 601 205 601 189.2 601C173.3 601 157.7 601 142 601C126.3 601 110.7 601 94.8 601C79 601 63 601 47.2 601C31.3 601 15.7 601 7.8 601L0 601Z" fill="#ce5b00"></path><path d="M0 534L7.8 527.5C15.7 521 31.3 508 47.2 506.5C63 505 79 515 94.8 522.7C110.7 530.3 126.3 535.7 142 531.8C157.7 528 173.3 515 189.2 511.5C205 508 221 514 236.8 515.5C252.7 517 268.3 514 284.2 516.5C300 519 316 527 331.8 527.5C347.7 528 363.3 521 379 522.7C394.7 524.3 410.3 534.7 426.2 534C442 533.3 458 521.7 473.8 515.3C489.7 509 505.3 508 521 510C536.7 512 552.3 517 568.2 522.7C584 528.3 600 534.7 615.8 535.2C631.7 535.7 647.3 530.3 663.2 522.5C679 514.7 695 504.3 710.8 508C726.7 511.7 742.3 529.3 758 536.3C773.7 543.3 789.3 539.7 805.2 531.8C821 524 837 512 852.8 513.8C868.7 515.7 884.3 531.3 892.2 539.2L900 547L900 601L892.2 601C884.3 601 868.7 601 852.8 601C837 601 821 601 805.2 601C789.3 601 773.7 601 758 601C742.3 601 726.7 601 710.8 601C695 601 679 601 663.2 601C647.3 601 631.7 601 615.8 601C600 601 584 601 568.2 601C552.3 601 536.7 601 521 601C505.3 601 489.7 601 473.8 601C458 601 442 601 426.2 601C410.3 601 394.7 601 379 601C363.3 601 347.7 601 331.8 601C316 601 300 601 284.2 601C268.3 601 252.7 601 236.8 601C221 601 205 601 189.2 601C173.3 601 157.7 601 142 601C126.3 601 110.7 601 94.8 601C79 601 63 601 47.2 601C31.3 601 15.7 601 7.8 601L0 601Z" fill="#c35100"></path><path d="M0 560L7.8 561.2C15.7 562.3 31.3 564.7 47.2 561.5C63 558.3 79 549.7 94.8 546.8C110.7 544 126.3 547 142 549.3C157.7 551.7 173.3 553.3 189.2 552.8C205 552.3 221 549.7 236.8 548.3C252.7 547 268.3 547 284.2 544.3C300 541.7 316 536.3 331.8 536.5C347.7 536.7 363.3 542.3 379 546.5C394.7 550.7 410.3 553.3 426.2 558.2C442 563 458 570 473.8 565.8C489.7 561.7 505.3 546.3 521 542.2C536.7 538 552.3 545 568.2 550.7C584 556.3 600 560.7 615.8 565C631.7 569.3 647.3 573.7 663.2 575.7C679 577.7 695 577.3 710.8 571C726.7 564.7 742.3 552.3 758 549.2C773.7 546 789.3 552 805.2 555.3C821 558.7 837 559.3 852.8 556C868.7 552.7 884.3 545.3 892.2 541.7L900 538L900 601L892.2 601C884.3 601 868.7 601 852.8 601C837 601 821 601 805.2 601C789.3 601 773.7 601 758 601C742.3 601 726.7 601 710.8 601C695 601 679 601 663.2 601C647.3 601 631.7 601 615.8 601C600 601 584 601 568.2 601C552.3 601 536.7 601 521 601C505.3 601 489.7 601 473.8 601C458 601 442 601 426.2 601C410.3 601 394.7 601 379 601C363.3 601 347.7 601 331.8 601C316 601 300 601 284.2 601C268.3 601 252.7 601 236.8 601C221 601 205 601 189.2 601C173.3 601 157.7 601 142 601C126.3 601 110.7 601 94.8 601C79 601 63 601 47.2 601C31.3 601 15.7 601 7.8 601L0 601Z" fill="#b84700"></path></svg>